<svg preserveAspectRatio="none" overflow="visible" style="display: block;" width="8.57782" height="15.2261" viewBox="0 0 8.57782 15.2261" fill="none" xmlns="http://www.w3.org/2000/svg">
<path id="chevron.right" d="M0 7.61304C0 7.83231 0.078937 8.02527 0.245582 8.19191L7.20081 14.9893C7.34991 15.1471 7.54287 15.2261 7.77091 15.2261C8.22699 15.2261 8.57782 14.884 8.57782 14.4279C8.57782 14.1999 8.48135 14.0069 8.34101 13.8578L1.95588 7.61304L8.34101 1.36824C8.48135 1.21914 8.57782 1.01741 8.57782 0.798141C8.57782 0.34206 8.22699 0 7.77091 0C7.54287 0 7.34991 0.078937 7.20081 0.22804L0.245582 7.03417C0.078937 7.19204 0 7.39377 0 7.61304Z" fill="black" fill-opacity="0.2"/>
</svg>
